<svg width="40" height="41" viewBox="0 0 40 41" fill="none" xmlns="http://www.w3.org/2000/svg">
<path d="M33.3334 35.875C33.3334 33.4909 33.3334 32.2989 33.0463 31.3289C32.4 29.1449 30.7327 27.4359 28.602 26.7734C27.6557 26.4792 26.4927 26.4792 24.1667 26.4792H15.8334C13.5075 26.4792 12.3445 26.4792 11.3982 26.7734C9.26751 27.4359 7.60015 29.1449 6.95381 31.3289C6.66675 32.2989 6.66675 33.4909 6.66675 35.875M27.5001 12.8125C27.5001 17.0582 24.1422 20.5 20.0001 20.5C15.8579 20.5 12.5001 17.0582 12.5001 12.8125C12.5001 8.56681 15.8579 5.125 20.0001 5.125C24.1422 5.125 27.5001 8.56681 27.5001 12.8125Z" stroke="#479E78" stroke-width="2" stroke-linecap="round" stroke-linejoin="round"/>
</svg>
