<?xml version="1.0" encoding="UTF-8"?><svg id="Layer_1" xmlns="http://www.w3.org/2000/svg" viewBox="0 0 1800 300"><path d="M115.8,56.63L30.58,243.37h51.48l16.6-36.29,91.57-44.53,36.91,80.82h53.26L195.18,56.63h-79.38ZM118.98,162.54l30.55-66.89h10.15l30.55,66.89h-71.24Z"/><polygon points="469.85 175.09 463.51 175.09 371.7 56.63 301.96 56.63 301.96 243.37 352.68 243.37 352.68 124.91 359.02 124.91 450.83 243.37 520.58 243.37 520.58 56.63 469.85 56.63 469.85 175.09"/><path d="M666.92,195.99h-7.61c-36.77,0-55.04-13.66-55.04-40.42v-11.15c0-25.92,18.26-40.42,55.04-40.42h7.61c38.04,0,54.02,12.54,54.27,26.48h54.53c0-51.29-45.4-76.65-108.8-76.65h-7.61c-60.61,0-109.56,27.04-109.56,90.59v11.15c0,62.44,48.95,90.59,109.56,90.59h7.61c63.4,0,109.82-28.15,109.82-77.49h-54.53c0,13.66-17.5,27.32-55.29,27.32Z"/><polygon points="963.66 124.08 859.17 124.08 859.17 56.63 805.91 56.63 805.91 243.37 859.17 243.37 859.17 171.46 963.66 171.46 963.66 243.37 1016.92 243.37 1016.92 56.63 963.66 56.63 963.66 124.08"/><path d="M1172.39,53.84h-12.68c-63.15,0-113.62,32.89-113.62,91.98v8.36c0,59.09,50.47,91.98,113.62,91.98h12.68c61.63,0,111.08-32.89,111.08-91.98v-8.36c0-59.09-49.45-91.98-111.08-91.98ZM1228.95,154.18c0,27.04-22.32,41.81-59.09,41.81h-10.14c-36.77,0-59.09-14.77-59.09-41.81v-8.36c0-27.32,22.32-41.81,59.09-41.81h10.14c36.77,0,59.09,14.49,59.09,41.81v8.36Z"/><path d="M1521.63,122.13v-8.36c0-31.5-21.81-57.14-60.61-57.14h-148.37v186.75h53.26v-63.83h66.19l36.27,63.83h60.61l-39.06-69.12c20.04-8.92,31.7-28.99,31.7-52.12ZM1467.1,119.62c0,10.31-5.83,15.61-20.54,15.61h-80.65v-34.84h80.65c14.71,0,20.54,6.69,20.54,16.17v3.07Z"/><path d="M1670,56.63h-119.45v186.75h119.45c62.39,0,99.42-25.09,99.42-85.01v-15.33c0-61.04-38.8-86.41-99.42-86.41ZM1714.89,158.36c0,24.53-11.16,37.63-44.89,37.63h-66.19v-91.98h66.19c34.24,0,44.89,13.94,44.89,39.02v15.33Z"/></svg>