<svg width="49" height="49" viewBox="0 0 49 49" fill="none" xmlns="http://www.w3.org/2000/svg">
<path d="M41.8541 14.8587L24.4999 24.4999M24.4999 24.4999L7.14577 14.8587M24.4999 24.4999L24.5 43.8958M42.875 32.7862V16.2138C42.875 15.5142 42.875 15.1644 42.7719 14.8525C42.6807 14.5765 42.5317 14.3232 42.3347 14.1094C42.1121 13.8678 41.8063 13.698 41.1948 13.3582L26.0864 4.96469C25.5074 4.64301 25.2179 4.48217 24.9113 4.41912C24.6399 4.36331 24.3601 4.36331 24.0887 4.41912C23.7821 4.48217 23.4926 4.64301 22.9136 4.9647L7.80523 13.3582C7.1937 13.698 6.88794 13.8678 6.66529 14.1094C6.46832 14.3232 6.31926 14.5765 6.22807 14.8525C6.125 15.1645 6.125 15.5142 6.125 16.2138V32.7862C6.125 33.4858 6.125 33.8356 6.22807 34.1475C6.31926 34.4235 6.46832 34.6768 6.66529 34.8906C6.88794 35.1322 7.19371 35.3021 7.80523 35.6418L22.9136 44.0353C23.4926 44.357 23.7821 44.5178 24.0887 44.5809C24.3601 44.6367 24.6399 44.6367 24.9113 44.5809C25.2179 44.5178 25.5074 44.357 26.0864 44.0353L41.1948 35.6418C41.8063 35.3021 42.1121 35.1322 42.3347 34.8906C42.5317 34.6768 42.6807 34.4235 42.7719 34.1475C42.875 33.8356 42.875 33.4858 42.875 32.7862Z" stroke="#479E78" stroke-width="2" stroke-linecap="round" stroke-linejoin="round"/>
<path d="M33.6875 19.3958L15.3125 9.1875" stroke="#479E78" stroke-width="2" stroke-linecap="round" stroke-linejoin="round"/>
</svg>
