<svg width="43" height="44" viewBox="0 0 43 44" fill="none" xmlns="http://www.w3.org/2000/svg">
<path d="M28.6672 16.5V11C28.6672 6.9499 25.4586 3.66666 21.5006 3.66666C17.5425 3.66666 14.3339 6.9499 14.3339 11V16.5M6.43625 18.9786L5.36125 30.7119C5.0556 34.048 4.90277 35.7161 5.44375 37.0045C5.91899 38.1363 6.75179 39.0721 7.8087 39.6619C9.01181 40.3333 10.6491 40.3333 13.9237 40.3333H29.0775C32.352 40.3333 33.9893 40.3333 35.1925 39.6619C36.2494 39.0721 37.0822 38.1363 37.5574 37.0045C38.0984 35.7161 37.9456 34.048 37.6399 30.7119L36.5649 18.9786C36.3068 16.1615 36.1778 14.7529 35.5586 13.688C35.0133 12.7501 34.2077 11.9994 33.2442 11.5314C32.1502 11 30.7676 11 28.0025 11L14.9987 11C12.2335 11 10.8509 11 9.75696 11.5314C8.79348 11.9994 7.98784 12.7501 7.44256 13.688C6.82341 14.7529 6.69436 16.1615 6.43625 18.9786Z" stroke="#479E78" stroke-width="2" stroke-linecap="round" stroke-linejoin="round"/>
</svg>
