<svg width="40" height="41" viewBox="0 0 40 41" fill="none" xmlns="http://www.w3.org/2000/svg">
<path d="M36.6666 35.875V32.4583C36.6666 29.2743 34.542 26.5989 31.6666 25.8403M25.8333 5.62171C28.2764 6.63542 29.9999 9.09057 29.9999 11.9583C29.9999 14.8261 28.2764 17.2813 25.8333 18.295M28.3333 35.875C28.3333 32.6911 28.3333 31.0991 27.8258 29.8433C27.1492 28.169 25.8513 26.8387 24.2178 26.1452C22.9927 25.625 21.4395 25.625 18.3333 25.625H13.3333C10.227 25.625 8.67384 25.625 7.4487 26.1452C5.81518 26.8387 4.51735 28.169 3.84072 29.8433C3.33325 31.0991 3.33325 32.6911 3.33325 35.875M22.4999 11.9583C22.4999 15.7323 19.5152 18.7917 15.8333 18.7917C12.1514 18.7917 9.16659 15.7323 9.16659 11.9583C9.16659 8.18439 12.1514 5.125 15.8333 5.125C19.5152 5.125 22.4999 8.18439 22.4999 11.9583Z" stroke="#479E78" stroke-width="2" stroke-linecap="round" stroke-linejoin="round"/>
</svg>
