<svg width="37" height="37" viewBox="0 0 37 37" fill="none" xmlns="http://www.w3.org/2000/svg">
<path d="M30.8332 32.375C30.8332 30.2235 30.8332 29.1478 30.5676 28.2724C29.9698 26.3015 28.4275 24.7592 26.4566 24.1614C25.5812 23.8958 24.5055 23.8958 22.354 23.8958H14.6457C12.4942 23.8958 11.4184 23.8958 10.5431 24.1614C8.57221 24.7592 7.0299 26.3015 6.43204 28.2724C6.1665 29.1478 6.1665 30.2235 6.1665 32.375M25.4373 11.5625C25.4373 15.394 22.3313 18.5 18.4998 18.5C14.6684 18.5 11.5623 15.394 11.5623 11.5625C11.5623 7.73102 14.6684 4.625 18.4998 4.625C22.3313 4.625 25.4373 7.73102 25.4373 11.5625Z" stroke="#3C5063" stroke-width="3" stroke-linecap="round" stroke-linejoin="round"/>
</svg>
