<svg width="45" height="45" viewBox="0 0 45 45" fill="none" xmlns="http://www.w3.org/2000/svg">
<path d="M30 15V8.43873C30 6.87921 30 6.09946 29.6715 5.62026C29.3845 5.20159 28.94 4.91718 28.4395 4.83202C27.8668 4.73456 27.1588 5.06132 25.7428 5.71485L9.11065 13.3912C7.84782 13.9741 7.21641 14.2655 6.75395 14.7175C6.34511 15.117 6.03303 15.6048 5.84157 16.1434C5.625 16.7527 5.625 17.4481 5.625 18.839V28.125M30.9375 27.1875H30.9563M5.625 21L5.625 33.375C5.625 35.4752 5.625 36.5253 6.03373 37.3275C6.39325 38.0331 6.96693 38.6067 7.67254 38.9663C8.4747 39.375 9.5248 39.375 11.625 39.375H33.375C35.4752 39.375 36.5253 39.375 37.3275 38.9663C38.0331 38.6067 38.6067 38.0331 38.9663 37.3275C39.375 36.5253 39.375 35.4752 39.375 33.375V21C39.375 18.8998 39.375 17.8497 38.9663 17.0475C38.6067 16.3419 38.0331 15.7683 37.3275 15.4087C36.5253 15 35.4752 15 33.375 15L11.625 15C9.5248 15 8.47471 15 7.67254 15.4087C6.96693 15.7682 6.39325 16.3419 6.03373 17.0475C5.625 17.8497 5.625 18.8998 5.625 21ZM31.875 27.1875C31.875 27.7053 31.4553 28.125 30.9375 28.125C30.4197 28.125 30 27.7053 30 27.1875C30 26.6697 30.4197 26.25 30.9375 26.25C31.4553 26.25 31.875 26.6697 31.875 27.1875Z" stroke="#479E78" stroke-width="2" stroke-linecap="round" stroke-linejoin="round"/>
</svg>
