<svg width="36" height="36" viewBox="0 0 36 36" fill="none" xmlns="http://www.w3.org/2000/svg">
<path d="M25.5 13.4999C25.5 12.7322 25.2071 11.9644 24.6213 11.3787C24.0355 10.7929 23.2678 10.5 22.5 10.5M22.5 22.5C27.4706 22.5 31.5 18.4706 31.5 13.5C31.5 8.52944 27.4706 4.5 22.5 4.5C17.5294 4.5 13.5 8.52944 13.5 13.5C13.5 13.9105 13.5275 14.3146 13.5807 14.7106C13.6683 15.3618 13.712 15.6874 13.6826 15.8934C13.6519 16.108 13.6128 16.2236 13.507 16.4128C13.4055 16.5945 13.2266 16.7734 12.8687 17.1313L5.20294 24.7971C4.94352 25.0565 4.8138 25.1862 4.72104 25.3376C4.6388 25.4718 4.57819 25.6181 4.54145 25.7712C4.5 25.9438 4.5 26.1272 4.5 26.4941V29.1C4.5 29.9401 4.5 30.3601 4.66349 30.681C4.8073 30.9632 5.03677 31.1927 5.31901 31.3365C5.63988 31.5 6.05992 31.5 6.9 31.5H10.5V28.5H13.5V25.5H16.5L18.8687 23.1313C19.2266 22.7734 19.4055 22.5945 19.5872 22.493C19.7764 22.3872 19.892 22.3481 20.1066 22.3174C20.3126 22.288 20.6382 22.3317 21.2894 22.4193C21.6854 22.4725 22.0895 22.5 22.5 22.5Z" stroke="white" stroke-width="2" stroke-linecap="round" stroke-linejoin="round"/>
</svg>
