<svg version="1.1" id="Layer_1" xmlns="http://www.w3.org/2000/svg" xmlns:xlink="http://www.w3.org/1999/xlink" x="0px" y="0px"
	 width="1000px" height="180.9px" viewBox="0 0 1000 180.9" enable-background="new 0 0 1000 180.9" xml:space="preserve">
<g>
	<path fill="#FFFFFF" d="M119.113,107.248c0,6.838,0,15.334-0.207,21.344c-1.244,35.434-24.866,51.803-60.922,51.803
		c-32.533,0-51.597-13.469-54.083-38.128l-0.207-2.072H35.19l0.207,1.865c1.036,8.91,9.946,14.298,23.415,14.298
		c15.956,0,26.524-7.668,27.353-24.037c0.207-3.937,0.415-8.703,0.415-13.883v-2.901l-8.289,12.226
		c-6.217,4.559-15.541,7.253-26.731,7.253C20.893,135.016,1,113.673,1,80.932c0-39.579,24.244-59.057,52.633-59.057
		c9.118,0,20.1,2.279,25.695,5.802l7.253,11.605V24.776h32.533V107.248z M86.58,78.238v-2.072c0-23.623-13.055-31.912-25.281-31.912
		c-15.749,0-26.938,10.154-26.938,34.191c0,21.757,10.568,34.19,25.902,34.19C74.976,112.636,86.58,103.519,86.58,78.238z"/>
	<path fill="#FFFFFF" d="M247.169,72.851v62.372h-32.533V77.823c0-4.144,0-9.738-0.415-15.333
		c-0.829-11.19-7.045-18.235-19.685-18.235c-12.848,0-22.38,11.604-22.38,39.786v51.183h-32.533V24.776h32.533v17.407l9.118-13.262
		c7.46-4.974,15.334-7.046,25.695-7.046c23.208,0,36.677,11.19,39.164,30.461C246.962,57.931,247.169,63.94,247.169,72.851z"/>
	<path fill="#FFFFFF" d="M328.395,119.06l-4.973,11.811c-7.875,4.974-17.199,7.253-27.353,7.253
		c-18.65,0-35.434-11.397-35.434-32.326c0-24.037,21.343-38.128,60.3-38.128h7.046v-1.865c0-2.901,0-5.802-0.415-9.532
		c-0.622-6.63-5.595-12.019-15.334-12.019c-10.154,0-15.749,6.217-16.578,17.199h-31.082c0.622-25.281,21.965-39.579,48.903-39.579
		c32.74,0,44.552,14.298,46.21,33.984c0.414,5.18,0.622,11.397,0.622,17.821v33.569c0,8.289,0.414,15.749,2.072,27.975h-31.704
		L328.395,119.06z M327.981,95.023v-8.081c-20.1-1.658-33.984,3.316-33.984,16.163c0,8.289,6.009,12.64,14.919,12.64
		C318.655,115.744,327.981,108.699,327.981,95.023z"/>
	<path fill="#FFFFFF" d="M450.028,22.704v26.317c-25.695-1.658-36.677,8.703-36.677,39.992v46.209h-32.533V24.776h32.533v21.136
		l8.289-15.333c5.595-5.803,13.676-8.704,20.1-8.704C445.262,21.875,447.542,22.29,450.028,22.704z"/>
	<path fill="#FFFFFF" d="M547.21,81.761H457.9c0.829,37.714,22.38,52.011,42.479,52.011c17.199,0,34.398-9.738,40.822-31.911h4.559
		c-6.631,24.037-25.074,36.263-45.795,36.263c-25.281,0-46.831-19.685-46.831-57.813c0-34.398,21.55-56.985,48.488-56.985
		c31.29,0,45.795,27.352,45.795,54.497C547.418,78.653,547.418,79.481,547.21,81.761z M457.9,77.41h84.959
		c-0.829-37.714-23.001-49.733-41.65-49.733C481.937,27.677,458.729,43.218,457.9,77.41z"/>
	<path fill="#FFFFFF" d="M646.879,74.716v60.507h-4.559V76.58c0-7.667-0.208-12.432-0.829-18.028
		c-2.072-18.442-12.226-30.876-32.947-30.876c-19.892,0-38.542,13.884-38.542,42.894v64.651h-4.558V26.227h4.558v24.866
		l4.352-10.776c8.081-11.396,20.722-16.991,34.19-16.991c21.965,0,35.227,12.226,37.506,33.569
		C646.671,62.49,646.879,65.806,646.879,74.716z"/>
	<path fill="#FFFFFF" d="M754.422,106.213c0,17.199,0,25.694-0.207,32.739c-0.829,24.659-16.992,41.858-44.759,41.858
		c-20.1,0-38.335-8.081-41.65-32.74l-0.415-3.108h4.559l0.415,3.108c2.693,20.93,19.478,28.389,37.506,28.389
		c25.694,0,39.164-16.164,39.786-38.957c0.207-7.253,0.207-12.847,0.207-23.001v-4.144l-5.802,12.432
		c-9.739,11.605-19.479,15.334-34.398,15.334c-28.388,0-47.038-23.416-47.038-56.57c0-38.542,23.208-58.228,49.525-58.228
		c13.883,0,22.793,4.144,31.704,14.09l6.009,13.677V25.399h4.559V106.213z M749.863,85.905V73.679
		c0-35.641-20.722-46.002-37.713-46.002c-26.11,0-44.552,21.758-44.552,53.047c0,28.596,14.92,53.047,42.48,53.047
		C731.628,133.772,749.863,121.754,749.863,85.905z"/>
	<path fill="#FFFFFF" d="M786.123,4.054c0,2.279-1.866,4.144-4.145,4.144c-2.278,0-4.144-1.865-4.144-4.144s1.866-4.144,4.144-4.144
		C784.257-0.09,786.123,1.775,786.123,4.054z M779.7,135.223V26.227h4.558v108.996H779.7z"/>
	<path fill="#FFFFFF" d="M890.971,74.716v60.507h-4.559V76.58c0-7.667-0.208-12.432-0.829-18.028
		c-2.072-18.442-12.226-30.876-32.947-30.876c-19.892,0-38.542,13.884-38.542,42.894v64.651h-4.558V26.227h4.558v24.866
		l4.352-10.776c8.081-11.396,20.722-16.991,34.19-16.991c21.965,0,35.227,12.226,37.506,33.569
		C890.763,62.49,890.971,65.806,890.971,74.716z"/>
	<path fill="#FFFFFF" d="M1000.793,81.761h-89.31c0.828,37.714,22.38,52.011,42.48,52.011c17.199,0,34.397-9.738,40.822-31.911
		h4.558c-6.63,24.037-25.073,36.263-45.794,36.263c-25.281,0-46.831-19.685-46.831-57.813c0-34.398,21.55-56.985,48.489-56.985
		c31.289,0,45.794,27.352,45.794,54.497C1001,78.653,1001,79.481,1000.793,81.761z M911.483,77.41h84.958
		c-0.828-37.714-23.001-49.733-41.65-49.733C935.52,27.677,912.311,43.218,911.483,77.41z"/>
</g>
</svg>
