<svg width="161" height="18" viewBox="0 0 161 18" fill="none" xmlns="http://www.w3.org/2000/svg">
<path d="M14.1172 16.2266C12.7656 16.8203 11.0742 17.1172 9.04297 17.1172C3.12891 17.1172 0.171875 14.207 0.171875 8.38672C0.171875 2.87891 3.17969 0.125 9.19531 0.125C11.0312 0.125 12.6719 0.398437 14.1172 0.945312V3.75781C12.6719 3.13281 11.1094 2.82031 9.42969 2.82031C5.40625 2.82031 3.39453 4.67578 3.39453 8.38672C3.39453 12.4102 5.29297 14.4219 9.08984 14.4219C9.65234 14.4219 10.293 14.3281 11.0117 14.1406V9.26562H14.1172V16.2266ZM17.0469 17V0.242188H20.1523L29 12.4531V0.242188H31.9883V17H28.8828L20.0352 4.53125V17H17.0469ZM37.2383 17H34.0508L41.1641 0.242188H44.5039L51.7695 17H48.4297L46.5195 12.4297H40.9531L42.0195 9.73438H45.3945L42.7578 3.44141L37.2383 17ZM53.8203 16.9766V0.242188H61.4375C64.8594 0.242188 66.5703 1.73828 66.5703 4.73047C66.5703 6.75391 65.2383 8.42969 62.5742 9.75781L67.8828 17H63.9688L58.8711 9.69922V8.28125C61.8398 7.77344 63.3242 6.62109 63.3242 4.82422C63.3242 3.58984 62.6289 2.97266 61.2383 2.97266H56.9844V16.9766H53.8203ZM86.1055 0.242188V2.91406H77.7148V7.13281H85.707V9.91016H77.6797V14.3047H86.2695V17H74.6328V0.242188H86.1055ZM89.1406 17V0.242188H92.2461L101.094 12.4531V0.242188H104.082V17H100.977L92.1289 4.53125V17H89.1406ZM120.969 16.2266C119.617 16.8203 117.926 17.1172 115.895 17.1172C109.98 17.1172 107.023 14.207 107.023 8.38672C107.023 2.87891 110.031 0.125 116.047 0.125C117.883 0.125 119.523 0.398437 120.969 0.945312V3.75781C119.523 3.13281 117.961 2.82031 116.281 2.82031C112.258 2.82031 110.246 4.67578 110.246 8.38672C110.246 12.4102 112.145 14.4219 115.941 14.4219C116.504 14.4219 117.145 14.3281 117.863 14.1406V9.26562H120.969V16.2266ZM127.004 0.242188V17H123.898V0.242188H127.004ZM130.531 17V0.242188H133.637L142.484 12.4531V0.242188H145.473V17H142.367L133.52 4.53125V17H130.531ZM160.473 0.242188V2.91406H152.082V7.13281H160.074V9.91016H152.047V14.3047H160.637V17H149V0.242188H160.473Z" fill="#37936B"/>
</svg>
