<?xml version="1.0" encoding="UTF-8"?><svg id="Layer_1" xmlns="http://www.w3.org/2000/svg" viewBox="0 0 1800 300"><defs><style>.cls-1{fill:#9f6;}</style></defs><polygon points="195.18 56.63 115.8 56.63 30.58 243.37 82.06 243.37 149.53 95.65 159.67 95.65 227.13 243.37 280.39 243.37 195.18 56.63"/><path d="M371.7,56.63l91.81,118.46h6.34V56.63h50.72v186.75h-69.75l-91.81-118.46h-6.34v118.46h-50.72V56.63h69.75Z"/><path d="M666.92,53.84c63.4,0,108.8,25.36,108.8,76.65h-54.53c-.25-13.94-16.23-26.48-54.27-26.48h-7.61c-36.77,0-55.04,14.49-55.04,40.42v11.15c0,26.76,18.26,40.42,55.04,40.42h7.61c37.79,0,55.29-13.66,55.29-27.32h54.53c0,49.33-46.41,77.49-109.82,77.49h-7.61c-60.61,0-109.56-28.15-109.56-90.59v-11.15c0-63.55,48.95-90.59,109.56-90.59h7.61Z"/><path d="M859.17,56.63v67.45h104.49V56.63h53.26v186.75h-53.26v-71.91h-104.49v71.91h-53.26V56.63h53.26Z"/><path d="M1172.39,53.84c61.63,0,111.08,32.89,111.08,91.98v8.36c0,59.09-49.45,91.98-111.08,91.98h-12.68c-63.15,0-113.62-32.89-113.62-91.98v-8.36c0-59.09,50.47-91.98,113.62-91.98h12.68ZM1100.62,145.82v8.36c0,27.04,22.32,41.81,59.09,41.81h10.14c36.77,0,59.09-14.77,59.09-41.81v-8.36c0-27.32-22.32-41.81-59.09-41.81h-10.14c-36.77,0-59.09,14.49-59.09,41.81Z"/><path d="M1461.02,56.63c38.8,0,60.61,25.64,60.61,57.14v8.36c0,23.13-11.67,43.2-31.7,52.12l39.06,69.12h-60.61l-36.27-63.83h-66.19v63.83h-53.26V56.63h148.37ZM1365.91,135.23h80.65c14.71,0,20.54-5.3,20.54-15.61v-3.07c0-9.48-5.83-16.17-20.54-16.17h-80.65v34.84Z"/><path d="M1670,56.63c60.62,0,99.42,25.36,99.42,86.41v15.33c0,59.93-37.03,85.01-99.42,85.01h-119.45V56.63h119.45ZM1603.81,195.99h66.19c33.73,0,44.89-13.1,44.89-37.63v-15.33c0-25.09-10.65-39.02-44.89-39.02h-66.19v91.98Z"/><polygon class="cls-1" points="118.97 162.54 98.66 207.09 190.26 162.54 118.97 162.54"/></svg>