<svg width="49" height="49" viewBox="0 0 49 49" fill="none" xmlns="http://www.w3.org/2000/svg">
<path d="M24.4999 30.625C27.8827 30.625 30.6249 27.8827 30.6249 24.5C30.6249 21.1173 27.8827 18.375 24.4999 18.375C21.1172 18.375 18.3749 21.1173 18.3749 24.5C18.3749 27.8827 21.1172 30.625 24.4999 30.625Z" stroke="#479E78" stroke-width="2" stroke-linecap="round" stroke-linejoin="round"/>
<path d="M38.2348 30.0682C37.9877 30.628 37.914 31.249 38.0232 31.8511C38.1323 32.4532 38.4194 33.0088 38.8473 33.4462L38.9586 33.5576C39.3038 33.9023 39.5776 34.3117 39.7644 34.7624C39.9512 35.213 40.0473 35.6961 40.0473 36.1839C40.0473 36.6717 39.9512 37.1548 39.7644 37.6054C39.5776 38.0561 39.3038 38.4655 38.9586 38.8102C38.6139 39.1554 38.2045 39.4292 37.7538 39.616C37.3032 39.8028 36.8201 39.8989 36.3323 39.8989C35.8445 39.8989 35.3614 39.8028 34.9108 39.616C34.4601 39.4292 34.0507 39.1554 33.706 38.8102L33.5946 38.6989C33.1572 38.271 32.6016 37.9839 31.9995 37.8748C31.3974 37.7656 30.7764 37.8393 30.2166 38.0864C29.6676 38.3216 29.1994 38.7123 28.8697 39.2103C28.5399 39.7082 28.3629 40.2918 28.3605 40.889V41.2045C28.3605 42.1891 27.9694 43.1333 27.2733 43.8294C26.5771 44.5256 25.6329 44.9167 24.6484 44.9167C23.6639 44.9167 22.7197 44.5256 22.0235 43.8294C21.3274 43.1333 20.9363 42.1891 20.9363 41.2045V41.0375C20.9219 40.4232 20.7231 39.8273 20.3656 39.3275C20.0081 38.8277 19.5085 38.447 18.9317 38.2348C18.3719 37.9878 17.7509 37.9141 17.1488 38.0232C16.5467 38.1324 15.9911 38.4195 15.5537 38.8473L15.4423 38.9587C15.0976 39.3039 14.6882 39.5777 14.2375 39.7645C13.7869 39.9513 13.3038 40.0474 12.816 40.0474C12.3282 40.0474 11.8451 39.9513 11.3945 39.7645C10.9439 39.5777 10.5344 39.3039 10.1897 38.9587C9.84455 38.614 9.57075 38.2046 9.38394 37.7539C9.19713 37.3033 9.10098 36.8202 9.10098 36.3324C9.10098 35.8446 9.19713 35.3615 9.38394 34.9109C9.57075 34.4602 9.84455 34.0508 10.1897 33.7061L10.3011 33.5947C10.7289 33.1573 11.016 32.6017 11.1252 31.9996C11.2343 31.3975 11.1606 30.7765 10.9136 30.2167C10.6783 29.6677 10.2876 29.1995 9.78965 28.8697C9.29168 28.54 8.70816 28.363 8.1109 28.3606H7.79537C6.81086 28.3606 5.86666 27.9695 5.17051 27.2733C4.47435 26.5772 4.08325 25.633 4.08325 24.6485C4.08325 23.664 4.47435 22.7198 5.17051 22.0236C5.86666 21.3275 6.81086 20.9364 7.79537 20.9364H7.96242C8.57676 20.922 9.17258 20.7231 9.67241 20.3656C10.1722 20.0082 10.553 19.5086 10.7651 18.9318C11.0121 18.372 11.0858 17.751 10.9767 17.1489C10.8675 16.5468 10.5805 15.9912 10.1526 15.5538L10.0412 15.4424C9.69607 15.0977 9.42226 14.6883 9.23545 14.2376C9.04864 13.787 8.95249 13.3039 8.95249 12.8161C8.95249 12.3283 9.04864 11.8452 9.23545 11.3946C9.42226 10.9439 9.69607 10.5345 10.0412 10.1898C10.386 9.84463 10.7954 9.57083 11.246 9.38402C11.6967 9.19721 12.1797 9.10106 12.6675 9.10106C13.1554 9.10106 13.6384 9.19721 14.0891 9.38402C14.5397 9.57083 14.9491 9.84463 15.2939 10.1898L15.4052 10.3011C15.8427 10.729 16.3982 11.0161 17.0003 11.1252C17.6024 11.2344 18.2234 11.1607 18.7833 10.9136H18.9317C19.4807 10.6784 19.9489 10.2877 20.2787 9.78973C20.6084 9.29176 20.7854 8.70824 20.7878 8.11098V7.79545C20.7878 6.81094 21.1789 5.86675 21.8751 5.17059C22.5712 4.47443 23.5154 4.08333 24.4999 4.08333C25.4844 4.08333 26.4286 4.47443 27.1248 5.17059C27.8209 5.86675 28.212 6.81094 28.212 7.79545V7.9625C28.2144 8.55975 28.3914 9.14328 28.7212 9.64124C29.0509 10.1392 29.5191 10.5299 30.0681 10.7652C30.6279 11.0122 31.2489 11.0859 31.851 10.9767C32.4531 10.8676 33.0087 10.5805 33.4461 10.1527L33.5575 10.0413C33.9023 9.69615 34.3117 9.42234 34.7623 9.23553C35.2129 9.04873 35.696 8.95257 36.1838 8.95257C36.6717 8.95257 37.1547 9.04873 37.6053 9.23553C38.056 9.42234 38.4654 9.69615 38.8101 10.0413C39.1553 10.386 39.4291 10.7954 39.6159 11.2461C39.8027 11.6967 39.8989 12.1798 39.8989 12.6676C39.8989 13.1554 39.8027 13.6385 39.6159 14.0891C39.4291 14.5398 39.1553 14.9492 38.8101 15.2939L38.6988 15.4053C38.2709 15.8427 37.9839 16.3983 37.8747 17.0004C37.7655 17.6025 37.8392 18.2235 38.0863 18.7833V18.9318C38.3216 19.4808 38.7122 19.949 39.2102 20.2787C39.7082 20.6085 40.2917 20.7855 40.8889 20.7879H41.2045C42.189 20.7879 43.1332 21.179 43.8293 21.8751C44.5255 22.5713 44.9166 23.5155 44.9166 24.5C44.9166 25.4845 44.5255 26.4287 43.8293 27.1249C43.1332 27.821 42.189 28.2121 41.2045 28.2121H41.0374C40.4402 28.2145 39.8566 28.3915 39.3587 28.7213C38.8607 29.051 38.47 29.5192 38.2348 30.0682Z" stroke="#479E78" stroke-width="2" stroke-linecap="round" stroke-linejoin="round"/>
</svg>
